<svg width="21" height="16" viewBox="0 0 21 16" fill="none" xmlns="http://www.w3.org/2000/svg">
<path d="M5.25 16C3.79909 16 2.56136 15.4767 1.53682 14.43C0.512273 13.3767 0 12.0933 0 10.58C0 9.28 0.372273 8.12 1.11682 7.1C1.86773 6.08 2.84773 5.43 4.05682 5.15C4.45773 3.61667 5.25318 2.37667 6.44318 1.43C7.63955 0.476667 8.99182 0 10.5 0C12.3645 0 13.9427 0.68 15.2345 2.04C16.5327 3.39333 17.1818 5.04667 17.1818 7C18.2827 7.13333 19.1927 7.63333 19.9118 8.5C20.6373 9.35333 21 10.3533 21 11.5C21 12.7533 20.5832 13.8167 19.7495 14.69C18.9159 15.5633 17.9009 16 16.7045 16H11.4545C10.9327 16 10.4841 15.8033 10.1086 15.41C9.73318 15.0233 9.54545 14.5533 9.54545 14V8.85L8.01818 10.4L6.68182 9L10.5 5L14.3182 9L12.9818 10.4L11.4545 8.85V14H16.7045C17.3727 14 17.9359 13.7567 18.3941 13.27C18.8586 12.79 19.0909 12.2 19.0909 11.5C19.0909 10.8 18.8586 10.21 18.3941 9.73C17.9359 9.24333 17.3727 9 16.7045 9H15.2727V7C15.2727 5.62 14.8082 4.44 13.8791 3.46C12.95 2.48667 11.8236 2 10.5 2C9.18273 2 8.05636 2.48667 7.12091 3.46C6.19182 4.44 5.72727 5.62 5.72727 7H5.25C4.32727 7 3.54136 7.34333 2.89227 8.03C2.23682 8.71 1.90909 9.53333 1.90909 10.5C1.90909 11.4667 2.23682 12.3 2.89227 13C3.54136 13.6667 4.32727 14 5.25 14H7.63636V16" fill="#D0BCFF"/>
</svg>
