<svg width="17" height="19" viewBox="0 0 17 19" fill="none" xmlns="http://www.w3.org/2000/svg">
<path d="M8.5 0C3.80375 0 0 1.88944 0 4.22222V14.7778C0 17.1106 3.81438 19 8.5 19C13.1856 19 17 17.1106 17 14.7778V4.22222C17 1.88944 13.1962 0 8.5 0ZM14.875 14.7778C14.875 15.3056 12.6119 16.8889 8.5 16.8889C4.38812 16.8889 2.125 15.3056 2.125 14.7778V12.4239C3.83562 13.2472 6.0775 13.7222 8.5 13.7222C10.9225 13.7222 13.1644 13.2472 14.875 12.4239V14.7778ZM14.875 9.975C13.4937 10.9778 11.0712 11.6111 8.5 11.6111C5.92875 11.6111 3.50625 10.9778 2.125 9.975V7.00889C3.68688 7.885 5.96062 8.44444 8.5 8.44444C11.0394 8.44444 13.3131 7.885 14.875 7.00889V9.975ZM8.5 6.33333C4.38812 6.33333 2.125 4.75 2.125 4.22222C2.125 3.69444 4.38812 2.11111 8.5 2.11111C12.6119 2.11111 14.875 3.69444 14.875 4.22222C14.875 4.75 12.6119 6.33333 8.5 6.33333Z" fill="#D0BCFF"/>
</svg>
