<svg width="31" height="31" viewBox="0 0 31 31" fill="none" xmlns="http://www.w3.org/2000/svg">
<path d="M8.25 26C6.24636 26 4.53712 25.3131 3.12227 23.9394C1.70742 22.5569 1 20.8725 1 18.8862C1 17.18 1.51409 15.6575 2.54227 14.3188C3.57924 12.98 4.93258 12.1269 6.60227 11.7594C7.15591 9.74687 8.25439 8.11937 9.89773 6.87687C11.5498 5.62562 13.4173 5 15.5 5C18.0748 5 20.2542 5.8925 22.0382 7.6775C23.8309 9.45375 24.7273 11.6237 24.7273 14.1875C26.2476 14.3625 27.5042 15.0187 28.4973 16.1562C29.4991 17.2763 30 18.5888 30 20.0938C30 21.7387 29.4244 23.1344 28.2732 24.2806C27.122 25.4269 25.7203 26 24.0682 26H8.25Z" fill="url(#paint0_linear_70_4074)"/>
<defs>
<linearGradient id="paint0_linear_70_4074" x1="15.5" y1="5" x2="15.5" y2="26" gradientUnits="userSpaceOnUse">
<stop stop-color="#F35E0F"/>
<stop offset="1" stop-color="#BB118B"/>
</linearGradient>
</defs>
</svg>
